<svg xmlns="http://www.w3.org/2000/svg" viewBox="0 0 520 740" fill="none">
<defs>
  <filter id="brush" x="-12%" y="-12%" width="124%" height="124%">
    <feTurbulence type="fractalNoise" baseFrequency="0.021" numOctaves="3" seed="7" result="n"/>
    <feDisplacementMap in="SourceGraphic" in2="n" scale="7" xChannelSelector="R" yChannelSelector="G"/>
  </filter>
  <filter id="wash" x="0%" y="0%" width="100%" height="100%">
    <feTurbulence type="fractalNoise" baseFrequency="0.9" numOctaves="3" seed="3"/>
    <feColorMatrix type="saturate" values="0"/>
    <feComponentTransfer><feFuncA type="linear" slope="0.14"/></feComponentTransfer>
  </filter>
</defs>
<g filter="url(#brush)">
  <g opacity=".92"><path d="M250 760Q225 615.5 244 470"
    stroke="#9DBAB4" stroke-width="11" stroke-linecap="round" fill="none"/><path d="M244 470Q388 273.4 400 30"
    stroke="#9DBAB4" stroke-width="8" stroke-linecap="round" fill="none"/></g>
  <g><path d="M237.3 471.2C194.7 398.1 163.4 215.6 200.8 117C250.9 188.9 272.1 380 254.7 468.8Z" fill="#A94E2C"/><path d="M221.1 408.3Q198.1 286.3 191.9 161.9" stroke="#7E3218" stroke-width="5.3" stroke-linecap="round" fill="none" opacity="0.3"/><path d="M225.8 404.6Q204.2 279.2 194 152.2" stroke="#7E3218" stroke-width="5.8" stroke-linecap="round" fill="none" opacity="0.2"/><path d="M235.6 401.2Q217.4 273.9 200 146.4" stroke="#7E3218" stroke-width="6.3" stroke-linecap="round" fill="none" opacity="0.2"/><path d="M245 429.1Q230.3 312.8 210.8 197.3" stroke="#7E3218" stroke-width="5.5" stroke-linecap="round" fill="none" opacity="0.2"/><path d="M254.9 430.1Q240.3 289.2 210.8 150.4" stroke="#7E3218" stroke-width="6.9" stroke-linecap="round" fill="none" opacity="0.2"/></g><g><path d="M242.3 470.1C236.6 373.9 284.3 161.8 349.1 68.7C367.3 165.2 307.8 383 257.7 473.9Z" fill="#A94E2C"/><path d="M258.2 386.7Q287.4 250.6 329.6 117.8" stroke="#7E3218" stroke-width="7.1" stroke-linecap="round" fill="none" opacity="0.2"/><path d="M259.4 405.9Q287.4 283.2 322.5 162.3" stroke="#7E3218" stroke-width="7.5" stroke-linecap="round" fill="none" opacity="0.3"/><path d="M273.2 393.2Q311.6 244.5 346.4 94.8" stroke="#7E3218" stroke-width="4.1" stroke-linecap="round" fill="none" opacity="0.2"/><path d="M281.1 396.3Q314 281.9 334.8 164.5" stroke="#7E3218" stroke-width="5.4" stroke-linecap="round" fill="none" opacity="0.3"/></g><g><path d="M234.8 476.2C166.2 418.2 61.7 248 57.3 145.5C128.4 191.7 227.5 373.9 249.2 467.8Z" fill="#A94E2C"/><path d="M191.7 416Q129.4 319.2 81.3 214.3" stroke="#7E3218" stroke-width="5" stroke-linecap="round" fill="none" opacity="0.2"/><path d="M206.3 428.5Q130.3 303.7 62.8 174" stroke="#7E3218" stroke-width="4.3" stroke-linecap="round" fill="none" opacity="0.2"/><path d="M198.4 403.5Q135.4 296.8 75.5 188.2" stroke="#7E3218" stroke-width="7.3" stroke-linecap="round" fill="none" opacity="0.3"/><path d="M207.1 398Q143.2 282.4 73.1 170.3" stroke="#7E3218" stroke-width="7.8" stroke-linecap="round" fill="none" opacity="0.2"/><path d="M232.3 431.5Q168.9 313.2 94.8 201.2" stroke="#7E3218" stroke-width="5.9" stroke-linecap="round" fill="none" opacity="0.1"/></g><g><path d="M248.5 463.7C268.4 396.6 359.6 272.5 434.1 231.3C423.9 307.7 321.9 430.9 259.5 472.3Z" fill="#A94E2C"/><path d="M280.5 410.8Q331.3 337.3 394 273.2" stroke="#7E3218" stroke-width="4.8" stroke-linecap="round" fill="none" opacity="0.3"/><path d="M271.1 436.9Q332.5 354.9 398.7 276.6" stroke="#7E3218" stroke-width="6.9" stroke-linecap="round" fill="none" opacity="0.4"/><path d="M278.7 440.4Q340.4 362.8 400.1 283.7" stroke="#7E3218" stroke-width="4.7" stroke-linecap="round" fill="none" opacity="0.3"/><path d="M295.5 429.8Q352.8 361.9 402.4 288" stroke="#7E3218" stroke-width="6.3" stroke-linecap="round" fill="none" opacity="0.3"/></g><g><path d="M234.1 479.3C164.1 458.2 29.6 365.6 -17.4 294.1C59.3 303.3 194 406.4 241.9 468.7Z" fill="#A94E2C"/><path d="M195.9 458Q92.2 388 -4.1 307.9" stroke="#7E3218" stroke-width="5.5" stroke-linecap="round" fill="none" opacity="0.2"/><path d="M207.2 459Q126 402.6 48.4 341.1" stroke="#7E3218" stroke-width="3.7" stroke-linecap="round" fill="none" opacity="0.2"/><path d="M196.7 447.1Q117.4 390.6 39.6 331.9" stroke="#7E3218" stroke-width="6" stroke-linecap="round" fill="none" opacity="0.2"/><path d="M212 450.6Q113.3 377.3 12.3 307.1" stroke="#7E3218" stroke-width="5.2" stroke-linecap="round" fill="none" opacity="0.2"/><path d="M211.3 442.5Q110.9 365.3 4.5 296.3" stroke="#7E3218" stroke-width="4.5" stroke-linecap="round" fill="none" opacity="0.3"/></g>
  <g style="mix-blend-mode:multiply" opacity=".55">
    <mask id="m7691"><g fill="#fff"><g><path d="M237.3 471.2C194.7 398.1 163.4 215.6 200.8 117C250.9 188.9 272.1 380 254.7 468.8Z" fill="#A94E2C"/><path d="M221.1 408.3Q198.1 286.3 191.9 161.9" stroke="#7E3218" stroke-width="5.3" stroke-linecap="round" fill="none" opacity="0.3"/><path d="M225.8 404.6Q204.2 279.2 194 152.2" stroke="#7E3218" stroke-width="5.8" stroke-linecap="round" fill="none" opacity="0.2"/><path d="M235.6 401.2Q217.4 273.9 200 146.4" stroke="#7E3218" stroke-width="6.3" stroke-linecap="round" fill="none" opacity="0.2"/><path d="M245 429.1Q230.3 312.8 210.8 197.3" stroke="#7E3218" stroke-width="5.5" stroke-linecap="round" fill="none" opacity="0.2"/><path d="M254.9 430.1Q240.3 289.2 210.8 150.4" stroke="#7E3218" stroke-width="6.9" stroke-linecap="round" fill="none" opacity="0.2"/></g><g><path d="M242.3 470.1C236.6 373.9 284.3 161.8 349.1 68.7C367.3 165.2 307.8 383 257.7 473.9Z" fill="#A94E2C"/><path d="M258.2 386.7Q287.4 250.6 329.6 117.8" stroke="#7E3218" stroke-width="7.1" stroke-linecap="round" fill="none" opacity="0.2"/><path d="M259.4 405.9Q287.4 283.2 322.5 162.3" stroke="#7E3218" stroke-width="7.5" stroke-linecap="round" fill="none" opacity="0.3"/><path d="M273.2 393.2Q311.6 244.5 346.4 94.8" stroke="#7E3218" stroke-width="4.1" stroke-linecap="round" fill="none" opacity="0.2"/><path d="M281.1 396.3Q314 281.9 334.8 164.5" stroke="#7E3218" stroke-width="5.4" stroke-linecap="round" fill="none" opacity="0.3"/></g><g><path d="M234.8 476.2C166.2 418.2 61.7 248 57.3 145.5C128.4 191.7 227.5 373.9 249.2 467.8Z" fill="#A94E2C"/><path d="M191.7 416Q129.4 319.2 81.3 214.3" stroke="#7E3218" stroke-width="5" stroke-linecap="round" fill="none" opacity="0.2"/><path d="M206.3 428.5Q130.3 303.7 62.8 174" stroke="#7E3218" stroke-width="4.3" stroke-linecap="round" fill="none" opacity="0.2"/><path d="M198.4 403.5Q135.4 296.8 75.5 188.2" stroke="#7E3218" stroke-width="7.3" stroke-linecap="round" fill="none" opacity="0.3"/><path d="M207.1 398Q143.2 282.4 73.1 170.3" stroke="#7E3218" stroke-width="7.8" stroke-linecap="round" fill="none" opacity="0.2"/><path d="M232.3 431.5Q168.9 313.2 94.8 201.2" stroke="#7E3218" stroke-width="5.9" stroke-linecap="round" fill="none" opacity="0.1"/></g><g><path d="M248.5 463.7C268.4 396.6 359.6 272.5 434.1 231.3C423.9 307.7 321.9 430.9 259.5 472.3Z" fill="#A94E2C"/><path d="M280.5 410.8Q331.3 337.3 394 273.2" stroke="#7E3218" stroke-width="4.8" stroke-linecap="round" fill="none" opacity="0.3"/><path d="M271.1 436.9Q332.5 354.9 398.7 276.6" stroke="#7E3218" stroke-width="6.9" stroke-linecap="round" fill="none" opacity="0.4"/><path d="M278.7 440.4Q340.4 362.8 400.1 283.7" stroke="#7E3218" stroke-width="4.7" stroke-linecap="round" fill="none" opacity="0.3"/><path d="M295.5 429.8Q352.8 361.9 402.4 288" stroke="#7E3218" stroke-width="6.3" stroke-linecap="round" fill="none" opacity="0.3"/></g><g><path d="M234.1 479.3C164.1 458.2 29.6 365.6 -17.4 294.1C59.3 303.3 194 406.4 241.9 468.7Z" fill="#A94E2C"/><path d="M195.9 458Q92.2 388 -4.1 307.9" stroke="#7E3218" stroke-width="5.5" stroke-linecap="round" fill="none" opacity="0.2"/><path d="M207.2 459Q126 402.6 48.4 341.1" stroke="#7E3218" stroke-width="3.7" stroke-linecap="round" fill="none" opacity="0.2"/><path d="M196.7 447.1Q117.4 390.6 39.6 331.9" stroke="#7E3218" stroke-width="6" stroke-linecap="round" fill="none" opacity="0.2"/><path d="M212 450.6Q113.3 377.3 12.3 307.1" stroke="#7E3218" stroke-width="5.2" stroke-linecap="round" fill="none" opacity="0.2"/><path d="M211.3 442.5Q110.9 365.3 4.5 296.3" stroke="#7E3218" stroke-width="4.5" stroke-linecap="round" fill="none" opacity="0.3"/></g></g></mask>
    <rect width="100%" height="100%" filter="url(#wash)" mask="url(#m7691)"/>
  </g>
</g>
</svg>